<svg xmlns="http://www.w3.org/2000/svg" xmlns:xlink="http://www.w3.org/1999/xlink" width="122" height="24" viewBox="0 0 122 24">
  <defs>
    <linearGradient id="linear-gradient" x1="-0.174" y1="0.91" x2="1.115" y2="0.125" gradientUnits="objectBoundingBox">
      <stop offset="0" stop-color="#32baa6"/>
      <stop offset="0.299" stop-color="#36c2aa"/>
      <stop offset="0.786" stop-color="#41dbb5"/>
      <stop offset="1" stop-color="#47e8bc"/>
    </linearGradient>
    <linearGradient id="linear-gradient-2" x1="0.014" y1="-0.151" x2="0.693" y2="0.76" gradientUnits="objectBoundingBox">
      <stop offset="0" stop-color="#32baa6"/>
      <stop offset="1" stop-color="#47e8bc"/>
    </linearGradient>
  </defs>
  <g id="logo-color" transform="translate(-359 -18)">
    <rect id="사각형_6" data-name="사각형 6" width="122" height="24" transform="translate(359 18)" fill="#fff" opacity="0"/>
    <g id="그룹_6" data-name="그룹 6" transform="translate(6.404 -416.123)">
      <g id="그룹_4" data-name="그룹 4" transform="translate(389.96 437.203)">
        <g id="그룹_3" data-name="그룹 3" transform="translate(0)">
          <path id="패스_2" data-name="패스 2" d="M495.678,446.981h3.28l5.458,7.539c.881,1.2,1.885,2.913,1.885,2.913V446.981h3.427v15.861h-3.3l-5.287-7.245c-1.052-1.42-2.031-3.109-2.031-3.109v10.353h-3.427Z" transform="translate(-495.678 -446.736)" fill="#0f0b43"/>
          <path id="패스_3" data-name="패스 3" d="M559.478,466.41a6.284,6.284,0,0,1,6.339-6.364,6.118,6.118,0,0,1,5.947,6.315,10.9,10.9,0,0,1-.073,1.175h-8.885a3.237,3.237,0,0,0,3.4,2.5,6.073,6.073,0,0,0,3.3-.954l1.224,2.349a8.245,8.245,0,0,1-4.553,1.346C562.611,472.773,559.478,470.448,559.478,466.41Zm9.2-1.053a2.956,2.956,0,0,0-2.962-2.57,3.068,3.068,0,0,0-2.962,2.57Z" transform="translate(-542.982 -456.423)" fill="#0f0b43"/>
          <path id="패스_4" data-name="패스 4" d="M612.927,466.989l-4.039-6h3.6l1.444,2.2c.441.685,1.052,1.909,1.052,1.909s.612-1.175,1.028-1.909l1.469-2.2h3.6l-4.063,6,4.063,6.241h-3.623L616.085,471c-.465-.759-1.1-2.031-1.1-2.031S614.4,470.2,613.931,471l-1.444,2.227h-3.6Z" transform="translate(-579.618 -457.125)" fill="#0f0b43"/>
          <path id="패스_5" data-name="패스 5" d="M660.086,460.445v-5.654H658.3v-2.643h1.787V449.8l3.28-.734v3.084h3.378v2.643h-3.378V460.4c0,1.053.514,1.4,1.1,1.4a3,3,0,0,0,1.566-.514l.93,2.423a5.642,5.642,0,0,1-3.109.93C661.408,464.63,660.086,463.211,660.086,460.445Z" transform="translate(-616.253 -448.281)" fill="#0f0b43"/>
          <path id="패스_6" data-name="패스 6" d="M697.109,454.21a8.4,8.4,0,1,1,8.4,8.2A8.12,8.12,0,0,1,697.109,454.21Zm13.217,0a4.829,4.829,0,1,0-4.8,5.091A4.854,4.854,0,0,0,710.326,454.21Z" transform="translate(-645.029 -446.035)" fill="#0f0b43"/>
          <path id="패스_7" data-name="패스 7" d="M768.2,446.981h3.28l5.458,7.539c.881,1.2,1.885,2.913,1.885,2.913V446.981h3.426v15.861h-3.3l-5.287-7.245c-1.052-1.42-2.032-3.109-2.032-3.109v10.353H768.2Z" transform="translate(-697.738 -446.736)" fill="#0f0b43"/>
        </g>
      </g>
      <g id="그룹_5" data-name="그룹 5" transform="translate(353.095 434.123)">
        <path id="패스_8" data-name="패스 8" d="M375.6,455.218l-3.828-6.63-.06-.1-3.6-6.24-.024-.04c-.022-.036-.044-.073-.066-.108l-.033-.051c-.029-.045-.059-.089-.09-.132l-.017-.023c-.046-.064-.094-.126-.144-.187l-.007-.009a4,4,0,0,0-1.091-.926h0a4.027,4.027,0,0,0-5.509,1.47l0,.007-7.491,12.975a4.048,4.048,0,0,0,1.477,5.513h0a4.048,4.048,0,0,0,5.513-1.477l3.994-6.918,3.993,6.917a4.048,4.048,0,0,0,5.513,1.477h0A4.047,4.047,0,0,0,375.6,455.218Zm-8.811-6.644h0Z" transform="translate(-353.095 -438.65)" fill="#46e8bc"/>
        <rect id="사각형_5" data-name="사각형 5" width="8.071" height="23.053" rx="4.036" transform="matrix(0.866, 0.5, -0.5, 0.866, 25.01, 0)" fill="url(#linear-gradient)"/>
        <path id="패스_9" data-name="패스 9" d="M401.651,479.06l-3.993-6.917,2.173-3.763h0a2.872,2.872,0,0,1,4.922-.089l.06.1,3.828,6.63a4.047,4.047,0,0,1-1.477,5.513h0A4.048,4.048,0,0,1,401.651,479.06Z" transform="translate(-386.136 -458.456)" fill="url(#linear-gradient-2)"/>
        <path id="패스_10" data-name="패스 10" d="M366.79,448.573h0l-2.173,3.763-3.994,6.918a4.048,4.048,0,0,1-5.513,1.477h0a4.048,4.048,0,0,1-1.477-5.513l7.491-12.975,0-.007a4,4,0,0,1,1.469-1.471h0a4.067,4.067,0,0,1,4.04,0h0a3.991,3.991,0,0,1,1.091.926l.007.009c.05.061.1.123.144.187l.017.023c.031.043.061.087.09.132l.033.051c.023.036.045.072.066.108l.024.04,3.6,6.24a2.872,2.872,0,0,0-4.922.089Z" transform="translate(-353.095 -438.65)" fill="#46e8bc"/>
        <circle id="타원_1" data-name="타원 1" cx="4.036" cy="4.036" r="4.036" transform="translate(22.459 1.472)" fill="#46e8bc"/>
      </g>
    </g>
  </g>
</svg>
