<svg xmlns="http://www.w3.org/2000/svg" xmlns:xlink="http://www.w3.org/1999/xlink" width="110.219" height="22.727" viewBox="0 0 110.219 22.727">
  <defs>
    <linearGradient id="linear-gradient" x1="-0.174" y1="0.91" x2="1.115" y2="0.125" gradientUnits="objectBoundingBox">
      <stop offset="0" stop-color="#32baa6"/>
      <stop offset="0.299" stop-color="#36c2aa"/>
      <stop offset="0.786" stop-color="#41dbb5"/>
      <stop offset="1" stop-color="#47e8bc"/>
    </linearGradient>
    <linearGradient id="linear-gradient-2" x1="0.014" y1="-0.151" x2="0.693" y2="0.76" gradientUnits="objectBoundingBox">
      <stop offset="0" stop-color="#32baa6"/>
      <stop offset="1" stop-color="#47e8bc"/>
    </linearGradient>
  </defs>
  <g id="logo-wh" transform="translate(-1215.516 -463.412)">
    <g id="그룹_52" data-name="그룹 52" transform="translate(1215.516 463.412)">
      <path id="패스_4950" data-name="패스 4950" d="M1236.827,483.712l-3.625-6.278-.057-.1-3.411-5.909-.023-.038q-.031-.052-.063-.1l-.031-.048c-.028-.043-.056-.084-.086-.125l-.016-.022c-.044-.06-.089-.119-.137-.177l-.007-.008a3.78,3.78,0,0,0-1.033-.877h0a3.814,3.814,0,0,0-5.216,1.392l0,.007-7.093,12.286a3.832,3.832,0,0,0,1.4,5.22h0a3.832,3.832,0,0,0,5.22-1.4l3.782-6.551,3.782,6.55a3.832,3.832,0,0,0,5.22,1.4h0A3.833,3.833,0,0,0,1236.827,483.712Zm-8.343-6.292h0Z" transform="translate(-1215.516 -468.023)" fill="#46e8bc"/>
      <rect id="사각형_81" data-name="사각형 81" width="7.643" height="21.83" rx="3.822" transform="matrix(0.866, 0.5, -0.5, 0.866, 23.683, 0)" fill="url(#linear-gradient)"/>
      <path id="패스_4951" data-name="패스 4951" d="M1263.861,507.706l-3.782-6.55,2.057-3.563h0a2.72,2.72,0,0,1,4.661-.084l.057.1,3.625,6.278a3.833,3.833,0,0,1-1.4,5.22h0A3.832,3.832,0,0,1,1263.861,507.706Z" transform="translate(-1249.169 -488.196)" fill="url(#linear-gradient-2)"/>
      <path id="패스_4952" data-name="패스 4952" d="M1228.484,477.419h0l-2.058,3.563-3.782,6.551a3.832,3.832,0,0,1-5.22,1.4h0a3.832,3.832,0,0,1-1.4-5.22l7.093-12.286,0-.007a3.784,3.784,0,0,1,1.391-1.393h0a3.85,3.85,0,0,1,3.825,0h0a3.78,3.78,0,0,1,1.033.877l.007.008c.047.058.093.116.137.177l.016.022c.029.041.058.083.086.125l.031.048q.032.051.063.1l.023.038,3.411,5.909a2.72,2.72,0,0,0-4.661.084Z" transform="translate(-1215.516 -468.023)" fill="#46e8bc"/>
      <circle id="타원_26" data-name="타원 26" cx="3.822" cy="3.822" r="3.822" transform="translate(21.267 1.394)" fill="#46e8bc"/>
    </g>
    <g id="그룹_55" data-name="그룹 55" transform="translate(1250.303 467.991)">
      <g id="그룹_54" data-name="그룹 54" transform="translate(0 0)">
        <g id="그룹_53" data-name="그룹 53">
          <path id="패스_4953" data-name="패스 4953" d="M1357.6,483.006h2.927l4.872,6.729c.786,1.07,1.682,2.6,1.682,2.6v-9.329h3.059v14.157h-2.949l-4.719-6.467c-.939-1.267-1.813-2.775-1.813-2.775v9.241H1357.6Z" transform="translate(-1357.604 -482.788)" fill="#fff"/>
          <path id="패스_4954" data-name="패스 4954" d="M1417.743,501a5.609,5.609,0,0,1,5.658-5.68,5.461,5.461,0,0,1,5.309,5.637,9.726,9.726,0,0,1-.065,1.049h-7.931a2.89,2.89,0,0,0,3.037,2.228,5.422,5.422,0,0,0,2.949-.852l1.092,2.1a7.36,7.36,0,0,1-4.063,1.2C1420.54,506.681,1417.743,504.606,1417.743,501Zm8.214-.939a2.639,2.639,0,0,0-2.643-2.294,2.738,2.738,0,0,0-2.643,2.294Z" transform="translate(-1403.02 -492.088)" fill="#fff"/>
          <path id="패스_4955" data-name="패스 4955" d="M1467.924,501.566l-3.6-5.353h3.211l1.289,1.966c.393.612.939,1.7.939,1.7s.546-1.049.918-1.7l1.311-1.966h3.211l-3.627,5.353,3.627,5.571h-3.233l-1.223-1.988c-.415-.677-.983-1.813-.983-1.813s-.524,1.092-.939,1.813l-1.289,1.988h-3.211Z" transform="translate(-1438.192 -492.761)" fill="#fff"/>
          <path id="패스_4956" data-name="패스 4956" d="M1512.489,495.129v-5.047h-1.595v-2.359h1.595v-2.1l2.927-.655v2.753h3.015v2.359h-3.015v5c0,.94.459,1.245.983,1.245a2.675,2.675,0,0,0,1.4-.459l.83,2.163a5.035,5.035,0,0,1-2.775.83C1513.668,498.864,1512.489,497.6,1512.489,495.129Z" transform="translate(-1473.365 -484.271)" fill="#fff"/>
          <path id="패스_4957" data-name="패스 4957" d="M1547.476,489.411a7.5,7.5,0,1,1,7.494,7.319A7.248,7.248,0,0,1,1547.476,489.411Zm11.8,0a4.31,4.31,0,1,0-4.282,4.544A4.332,4.332,0,0,0,1559.273,489.411Z" transform="translate(-1500.99 -482.114)" fill="#fff"/>
          <path id="패스_4958" data-name="패스 4958" d="M1614.486,483.006h2.928l4.872,6.729c.786,1.07,1.682,2.6,1.682,2.6v-9.329h3.058v14.157h-2.949l-4.719-6.467c-.939-1.267-1.813-2.775-1.813-2.775v9.241h-3.059Z" transform="translate(-1551.594 -482.788)" fill="#fff"/>
        </g>
      </g>
    </g>
  </g>
</svg>
