<svg xmlns="http://www.w3.org/2000/svg" xmlns:xlink="http://www.w3.org/1999/xlink" width="80" height="56" viewBox="0 0 80 56">
  <defs>
    <linearGradient id="linear-gradient" x1="-0.174" y1="0.91" x2="1.115" y2="0.125" gradientUnits="objectBoundingBox">
      <stop offset="0" stop-color="#32baa6"/>
      <stop offset="0.299" stop-color="#36c2aa"/>
      <stop offset="0.786" stop-color="#41dbb5"/>
      <stop offset="1" stop-color="#47e8bc"/>
    </linearGradient>
    <linearGradient id="linear-gradient-2" x1="0.014" y1="-0.151" x2="0.693" y2="0.76" gradientUnits="objectBoundingBox">
      <stop offset="0" stop-color="#32baa6"/>
      <stop offset="1" stop-color="#47e8bc"/>
    </linearGradient>
  </defs>
  <g id="symbol-color" transform="translate(0 -0.471)">
    <rect id="사각형_13" data-name="사각형 13" width="80" height="56" transform="translate(0 0.471)" fill="rgba(255,255,255,0)"/>
    <g id="그룹_7" data-name="그룹 7" transform="translate(4.555 0.5)">
      <path id="패스_8" data-name="패스 8" d="M405.36,475.039l-8.89-15.4-.14-.243-8.367-14.492c-.018-.031-.038-.061-.056-.092-.05-.085-.1-.169-.154-.252l-.076-.119c-.068-.1-.138-.207-.21-.307l-.038-.054c-.107-.148-.219-.292-.335-.434l-.017-.02a9.281,9.281,0,0,0-2.533-2.151h0a9.353,9.353,0,0,0-12.793,3.414l-.01.016-17.4,30.131a9.4,9.4,0,0,0,3.43,12.8h0a9.4,9.4,0,0,0,12.8-3.431l9.276-16.065,9.274,16.064a9.4,9.4,0,0,0,12.8,3.43h0A9.4,9.4,0,0,0,405.36,475.039ZM384.9,459.608v0h0Z" transform="translate(-353.095 -436.563)" fill="#46e8bc"/>
      <rect id="사각형_5" data-name="사각형 5" width="18.745" height="53.538" rx="9.372" transform="matrix(0.866, 0.5, -0.5, 0.866, 58.082, 0)" fill="url(#linear-gradient)"/>
      <path id="패스_9" data-name="패스 9" d="M406.932,495.084l-9.274-16.064,5.046-8.739,0,0a6.67,6.67,0,0,1,11.43-.207l.14.243,8.89,15.4a9.4,9.4,0,0,1-3.43,12.8h0A9.4,9.4,0,0,1,406.932,495.084Z" transform="translate(-370.9 -447.236)" fill="url(#linear-gradient-2)"/>
      <path id="패스_10" data-name="패스 10" d="M384.9,459.606v0l-5.046,8.74-9.276,16.065a9.4,9.4,0,0,1-12.8,3.431h0a9.4,9.4,0,0,1-3.43-12.8l17.4-30.131.01-.016a9.292,9.292,0,0,1,3.411-3.417h0a9.446,9.446,0,0,1,9.382,0h0a9.272,9.272,0,0,1,2.533,2.151l.017.02c.115.142.228.286.335.434l.038.054c.072.1.142.2.21.307l.076.119c.053.083.1.167.154.252.019.031.038.061.056.093L396.33,459.4a6.67,6.67,0,0,0-11.43.207Z" transform="translate(-353.095 -436.563)" fill="#46e8bc"/>
      <ellipse id="타원_1" data-name="타원 1" cx="9.372" cy="9.372" rx="9.372" ry="9.372" transform="translate(52.158 3.419)" fill="#46e8bc"/>
    </g>
  </g>
</svg>
